<?xml version="1.0" standalone="no"?>
<!DOCTYPE svg PUBLIC "-//W3C//DTD SVG 20010904//EN"
 "http://www.w3.org/TR/2001/REC-SVG-20010904/DTD/svg10.dtd">
<svg version="1.0" xmlns="http://www.w3.org/2000/svg"
 width="512.000000pt" height="512.000000pt" viewBox="0 0 512.000000 512.000000"
 preserveAspectRatio="xMidYMid meet">
<metadata>
Created by potrace 1.14, written by Peter Selinger 2001-2017
</metadata>
<g transform="translate(0.000000,512.000000) scale(0.100000,-0.100000)"
fill="#000000" stroke="none">
<path d="M2365 5114 c-363 -37 -636 -113 -930 -258 -272 -134 -460 -268 -679
-484 -396 -391 -644 -885 -733 -1462 -21 -142 -25 -528 -5 -665 59 -412 189
-763 406 -1095 88 -134 189 -257 319 -389 213 -215 413 -359 692 -497 257
-127 507 -203 810 -246 118 -17 512 -17 630 0 598 85 1094 331 1502 743 403
408 641 895 725 1484 17 118 17 512 0 630 -96 677 -409 1241 -927 1671 -336
279 -790 477 -1255 549 -101 15 -467 28 -555 19z m-647 -764 c200 -56 402
-191 641 -430 113 -112 291 -311 291 -324 0 -5 -278 -393 -300 -419 -4 -4 -39
32 -77 80 -176 220 -353 337 -479 318 -63 -9 -133 -60 -163 -119 -34 -65 -40
-190 -16 -307 35 -175 149 -428 326 -724 446 -748 796 -1114 1043 -1093 176
15 243 186 171 433 -33 113 -63 190 -131 334 -30 63 -52 116 -49 119 8 8 489
102 500 98 6 -2 43 -75 82 -162 196 -438 287 -793 270 -1052 -13 -194 -61
-308 -181 -428 -93 -93 -169 -135 -286 -160 -423 -89 -1024 376 -1603 1240
-316 472 -579 990 -692 1362 -64 209 -86 331 -92 514 -7 201 8 293 67 419 69
143 214 263 371 305 81 22 220 20 307 -4z"/>
</g>
</svg>
