<?xml version="1.0" standalone="no"?>
<!DOCTYPE svg PUBLIC "-//W3C//DTD SVG 20010904//EN"
 "http://www.w3.org/TR/2001/REC-SVG-20010904/DTD/svg10.dtd">
<svg version="1.0" xmlns="http://www.w3.org/2000/svg"
 width="512.000000pt" height="512.000000pt" viewBox="0 0 512.000000 512.000000"
 preserveAspectRatio="xMidYMid meet">
<metadata>
Created by potrace 1.14, written by Peter Selinger 2001-2017
</metadata>
<g transform="translate(0.000000,512.000000) scale(0.100000,-0.100000)"
fill="#000000" stroke="none">
<path d="M2408 5104 c-2 -1 -39 -5 -84 -8 -45 -4 -92 -9 -105 -11 -13 -3 -41
-8 -64 -11 -22 -4 -49 -8 -60 -10 -11 -1 -30 -5 -41 -8 -12 -2 -37 -7 -56 -10
-20 -3 -46 -10 -59 -15 -13 -5 -28 -9 -34 -10 -5 -1 -28 -7 -50 -13 -22 -6
-42 -12 -45 -13 -69 -15 -278 -100 -402 -163 -54 -27 -98 -48 -98 -46 0 2 -9
-5 -20 -16 -11 -11 -24 -20 -29 -20 -12 0 -149 -90 -226 -149 -432 -329 -737
-758 -904 -1272 -12 -36 -23 -74 -26 -85 -2 -10 -10 -44 -18 -74 -8 -30 -18
-73 -23 -95 -4 -22 -8 -42 -9 -45 -1 -3 -5 -32 -9 -65 -5 -33 -10 -68 -12 -78
-24 -136 -24 -515 2 -667 2 -14 6 -45 10 -70 3 -25 7 -53 10 -62 7 -25 14 -59
19 -94 3 -17 9 -43 15 -58 5 -14 7 -26 4 -26 -2 0 0 -8 5 -18 6 -11 12 -30 15
-43 25 -134 176 -470 294 -654 51 -80 53 -82 144 -200 90 -117 248 -283 352
-370 33 -28 70 -60 83 -72 12 -12 23 -20 23 -17 0 2 28 -17 63 -44 35 -27 93
-66 128 -87 35 -21 66 -42 69 -45 9 -11 313 -158 343 -165 15 -4 27 -10 27
-14 0 -4 8 -7 18 -8 9 -1 37 -9 62 -18 123 -46 361 -104 495 -119 28 -3 75 -9
105 -12 118 -14 470 -8 580 11 14 2 43 6 65 10 292 43 644 171 895 323 34 21
191 124 210 139 332 250 613 589 783 943 42 88 78 168 82 180 8 32 30 88 38
98 5 6 7 12 3 12 -3 0 3 21 13 48 10 26 19 50 20 55 0 4 1 8 2 10 0 1 2 13 5
26 2 14 9 30 14 36 5 7 8 14 5 16 -2 3 0 22 6 44 5 22 12 51 14 65 2 14 7 36
10 50 3 14 8 45 11 70 3 25 8 54 10 65 23 120 24 489 0 665 -4 35 -20 134 -21
140 -1 3 -5 23 -9 45 -51 256 -179 584 -311 796 -45 72 -99 154 -105 159 -11
11 -60 79 -60 84 0 3 -8 14 -17 24 -10 10 -43 47 -73 83 -30 35 -91 100 -135
144 -80 80 -170 159 -257 228 -32 25 -169 119 -199 136 -179 105 -328 176
-484 230 -49 17 -97 34 -105 38 -8 3 -20 7 -25 8 -6 2 -49 12 -96 24 -48 12
-97 24 -110 26 -13 3 -35 7 -49 10 -14 2 -41 7 -60 10 -19 3 -46 8 -60 10 -80
13 -492 29 -502 19z"/>
</g>
</svg>
