<svg width="46" height="46" viewBox="0 0 46 46" fill="none" xmlns="http://www.w3.org/2000/svg">
<rect width="46" height="46" rx="4" fill="white"/>
<path fill-rule="evenodd" clip-rule="evenodd" d="M17.9842 16.6666L17.7158 15.5133C17.5068 14.6237 16.7579 13.9999 15.899 14H15V15.3333H15.899C16.1929 15.3242 16.4529 15.5352 16.5233 15.84L18.7459 25.4932L18.9769 26.4865C19.1875 27.3833 19.9465 28.0091 20.8123 27.9998H29.3592V26.6665H20.8123C20.5185 26.6756 20.2585 26.4646 20.188 26.1598L20.1131 25.8265L29.3592 23.4999C30.0427 23.3302 30.5801 22.7666 30.7514 22.0399L32 16.6666H17.9842ZM29.5652 21.7199C29.5074 21.9633 29.3264 22.1515 29.097 22.2065L19.8259 24.5332L18.2964 17.9999H30.433L29.5652 21.7199ZM18 30C18 28.8954 18.8954 28 20 28C21.1046 28 22 28.8954 22 30C22 31.1046 21.1046 32 20 32C18.8954 32 18 31.1046 18 30ZM19.3333 30C19.3333 30.3682 19.6318 30.6667 20 30.6667C20.3682 30.6667 20.6667 30.3682 20.6667 30C20.6667 29.6318 20.3682 29.3333 20 29.3333C19.6318 29.3333 19.3333 29.6318 19.3333 30ZM25.1523 29.2346C25.4619 28.4873 26.1911 28 27 28C28.1046 28 29 28.8954 29 30C29 30.8089 28.5127 31.5381 27.7654 31.8477C27.018 32.1573 26.1578 31.9862 25.5858 31.4142C25.0138 30.8422 24.8427 29.982 25.1523 29.2346ZM26.3334 30C26.3334 30.3682 26.6318 30.6666 27 30.6666C27.3682 30.6666 27.6667 30.3682 27.6667 30C27.6667 29.6318 27.3682 29.3333 27 29.3333C26.6318 29.3333 26.3334 29.6318 26.3334 30Z" fill="black"/>
</svg>
