<svg width="56" height="56" viewBox="0 0 56 56" fill="none" xmlns="http://www.w3.org/2000/svg">
<rect x="0.5" y="0.5" width="55" height="55" rx="3.5" stroke="#E6E6EB"/>
<path fill-rule="evenodd" clip-rule="evenodd" d="M22.9842 21.6666L22.7158 20.5133C22.5068 19.6237 21.7579 18.9999 20.899 19H20V20.3333H20.899C21.1929 20.3242 21.4529 20.5352 21.5233 20.84L23.7459 30.4932L23.9769 31.4865C24.1875 32.3833 24.9465 33.0091 25.8123 32.9998H34.3592V31.6665H25.8123C25.5185 31.6756 25.2585 31.4646 25.188 31.1598L25.1131 30.8265L34.3592 28.4999C35.0427 28.3302 35.5801 27.7666 35.7514 27.0399L37 21.6666H22.9842ZM34.5652 26.7199C34.5074 26.9633 34.3264 27.1515 34.097 27.2065L24.8259 29.5332L23.2964 22.9999H35.433L34.5652 26.7199ZM23 35C23 33.8954 23.8954 33 25 33C26.1046 33 27 33.8954 27 35C27 36.1046 26.1046 37 25 37C23.8954 37 23 36.1046 23 35ZM24.3333 35C24.3333 35.3682 24.6318 35.6667 25 35.6667C25.3682 35.6667 25.6667 35.3682 25.6667 35C25.6667 34.6318 25.3682 34.3333 25 34.3333C24.6318 34.3333 24.3333 34.6318 24.3333 35ZM30.1523 34.2346C30.4619 33.4873 31.1911 33 32 33C33.1046 33 34 33.8954 34 35C34 35.8089 33.5127 36.5381 32.7654 36.8477C32.018 37.1573 31.1578 36.9862 30.5858 36.4142C30.0138 35.8422 29.8427 34.982 30.1523 34.2346ZM31.3334 35C31.3334 35.3682 31.6318 35.6666 32 35.6666C32.3682 35.6666 32.6667 35.3682 32.6667 35C32.6667 34.6318 32.3682 34.3333 32 34.3333C31.6318 34.3333 31.3334 34.6318 31.3334 35Z" fill="black"/>
</svg>
