<svg width="24" height="24" viewBox="0 0 24 24" fill="none" xmlns="http://www.w3.org/2000/svg">
<path fill-rule="evenodd" clip-rule="evenodd" d="M11.5 3.66667C11.04 3.66667 10.6667 4.04 10.6667 4.5V5.33333H14V4.5C14 4.04 13.6267 3.66667 13.1667 3.66667H11.5ZM15.6667 5.33333V4.5C15.6667 3.11917 14.5475 2 13.1667 2H11.5C10.1192 2 9 3.11917 9 4.5V5.33333H4.83333C4.37333 5.33333 4 5.70667 4 6.16667C4 6.62667 4.37333 7 4.83333 7H4.92083L6.34 19.7758C6.48083 21.0425 7.55083 22 8.825 22H15.8417C17.1158 22 18.1858 21.0425 18.3258 19.7758L19.7458 7H19.8333C20.2933 7 20.6667 6.62667 20.6667 6.16667C20.6667 5.70667 20.2933 5.33333 19.8333 5.33333H15.6667ZM18.0692 7H6.5975L7.99667 19.5917C8.04417 20.0142 8.40083 20.3333 8.825 20.3333H15.8417C16.2658 20.3333 16.6225 20.0142 16.67 19.5917L18.0692 7ZM10.6667 9.5C11.1267 9.5 11.5 9.87333 11.5 10.3333V17C11.5 17.46 11.1267 17.8333 10.6667 17.8333C10.2067 17.8333 9.83333 17.46 9.83333 17V10.3333C9.83333 9.87333 10.2067 9.5 10.6667 9.5ZM14 9.5C14.46 9.5 14.8333 9.87333 14.8333 10.3333V17C14.8333 17.46 14.46 17.8333 14 17.8333C13.54 17.8333 13.1667 17.46 13.1667 17V10.3333C13.1667 9.87333 13.54 9.5 14 9.5Z" fill="black"/>
</svg>
