<svg width="20" height="19" viewBox="0 0 20 19" fill="none" xmlns="http://www.w3.org/2000/svg">
<path fill-rule="evenodd" clip-rule="evenodd" d="M0.714286 3.33513H2.00476C2.32184 4.46266 3.35016 5.24169 4.52143 5.24169C5.69269 5.24169 6.72102 4.46266 7.0381 3.33513H19.2857C19.6802 3.33513 20 3.01533 20 2.62084C20 2.22635 19.6802 1.90656 19.2857 1.90656H7.04286C6.72578 0.77903 5.69745 0 4.52619 0C3.35493 0 2.3266 0.77903 2.00952 1.90656H0.714286C0.319797 1.90656 0 2.22635 0 2.62084C0 3.01533 0.319797 3.33513 0.714286 3.33513ZM4.52381 1.43037C5.18129 1.43037 5.71429 1.96336 5.71429 2.62084C5.71429 3.27833 5.18129 3.81132 4.52381 3.81132C3.86633 3.81132 3.33333 3.27833 3.33333 2.62084C3.33333 1.96336 3.86633 1.43037 4.52381 1.43037ZM19.2857 8.57322H12.4381C12.0484 7.56624 11.0798 6.90243 10 6.90243C8.92025 6.90243 7.95159 7.56624 7.5619 8.57322H0.714286C0.319797 8.57322 0 8.89302 0 9.28751C0 9.682 0.319797 10.0018 0.714286 10.0018H7.42857C7.66166 11.2396 8.74283 12.1362 10.0024 12.1362C11.2619 12.1362 12.3431 11.2396 12.5762 10.0018H19.2857C19.6802 10.0018 20 9.682 20 9.28751C20 8.89302 19.6802 8.57322 19.2857 8.57322ZM10 10.7161C9.34252 10.7161 8.80952 10.1831 8.80952 9.52561C8.80952 8.86812 9.34252 8.33513 10 8.33513C10.6575 8.33513 11.1905 8.86812 11.1905 9.52561C11.1905 10.1831 10.6575 10.7161 10 10.7161ZM17.9952 15.2399H19.2857C19.6802 15.2399 20 15.5597 20 15.9542C20 16.3487 19.6802 16.6685 19.2857 16.6685H17.9905C17.6734 17.796 16.6451 18.575 15.4738 18.575C14.3025 18.575 13.2742 17.796 12.9571 16.6685H0.714286C0.319797 16.6685 0 16.3487 0 15.9542C0 15.5597 0.319797 15.2399 0.714286 15.2399H12.9619C13.279 14.1124 14.3073 13.3333 15.4786 13.3333C16.6498 13.3333 17.6782 14.1124 17.9952 15.2399ZM14.2857 15.9542C14.2857 16.6117 14.8187 17.1447 15.4762 17.1447C16.1337 17.1447 16.6667 16.6117 16.6667 15.9542C16.6667 15.2967 16.1337 14.7637 15.4762 14.7637C14.8187 14.7637 14.2857 15.2967 14.2857 15.9542Z" fill="black"/>
</svg>
