<svg width="20" height="20" viewBox="0 0 20 20" fill="none" xmlns="http://www.w3.org/2000/svg">
<path fill-rule="evenodd" clip-rule="evenodd" d="M10.0005 -0.000976562C7.28448 -0.000976562 6.94363 0.0108995 5.87689 0.0594435C4.81224 0.108197 4.08553 0.27675 3.44966 0.524056C2.79191 0.779489 2.23396 1.12118 1.67809 1.67725C1.1218 2.23312 0.780114 2.79107 0.523848 3.44862C0.275916 4.0847 0.107155 4.81162 0.0592356 5.87585C0.0115242 6.94258 -0.000976562 7.28365 -0.000976562 9.99965C-0.000976562 12.7157 0.0111074 13.0555 0.0594435 14.1222C0.108405 15.1869 0.276958 15.9136 0.524056 16.5494C0.779697 17.2072 1.12139 17.7651 1.67746 18.321C2.23312 18.8773 2.79107 19.2198 3.44841 19.4752C4.0847 19.7225 4.81162 19.8911 5.87606 19.9399C6.94279 19.9884 7.28344 20.0003 9.99923 20.0003C12.7154 20.0003 13.0553 19.9884 14.122 19.9399C15.1866 19.8911 15.9142 19.7225 16.5505 19.4752C17.208 19.2198 17.7651 18.8773 18.3208 18.321C18.8771 17.7651 19.2188 17.2072 19.475 16.5496C19.7209 15.9136 19.8896 15.1866 19.9396 14.1224C19.9876 13.0557 20.0001 12.7157 20.0001 9.99965C20.0001 7.28365 19.9876 6.94279 19.9396 5.87606C19.8896 4.81141 19.7209 4.0847 19.475 3.44882C19.2188 2.79107 18.8771 2.23312 18.3208 1.67725C17.7645 1.12097 17.2082 0.779281 16.5499 0.524056C15.9123 0.27675 15.1852 0.108197 14.1205 0.0594435C13.0538 0.0108995 12.7142 -0.000976562 9.99736 -0.000976562H10.0005ZM9.10334 1.80122C9.27749 1.80095 9.46484 1.80103 9.667 1.80112H9.66717L10.0005 1.80122C12.6706 1.80122 12.9871 1.8108 14.0416 1.85872C15.0166 1.90331 15.5458 2.06624 15.8984 2.20312C16.365 2.38438 16.6978 2.60106 17.0476 2.95108C17.3976 3.30111 17.6143 3.63446 17.796 4.10116C17.9329 4.45326 18.096 4.98246 18.1404 5.95752C18.1883 7.01175 18.1987 7.32844 18.1987 9.99736C18.1987 12.6663 18.1883 12.983 18.1404 14.0372C18.0958 15.0123 17.9329 15.5415 17.796 15.8936C17.6147 16.3603 17.3976 16.6926 17.0476 17.0424C16.6976 17.3924 16.3653 17.6091 15.8984 17.7903C15.5462 17.9279 15.0166 18.0904 14.0416 18.135C12.9873 18.1829 12.6706 18.1933 10.0005 18.1933C7.33011 18.1933 7.01363 18.1829 5.9594 18.135C4.98434 18.0899 4.45514 17.927 4.10241 17.7901C3.63571 17.6089 3.30236 17.3922 2.95233 17.0422C2.60231 16.6922 2.38563 16.3596 2.20395 15.8927C2.06707 15.5406 1.90393 15.0114 1.85956 14.0364C1.81164 12.9821 1.80205 12.6654 1.80205 9.99486C1.80205 7.32427 1.81164 7.00925 1.85956 5.95502C1.90414 4.97996 2.06707 4.45076 2.20395 4.09824C2.38521 3.63154 2.60231 3.29819 2.95233 2.94817C3.30236 2.59814 3.63571 2.38146 4.10241 2.19979C4.45493 2.06228 4.98434 1.89977 5.9594 1.85497C6.88195 1.8133 7.23948 1.8008 9.10334 1.79872V1.80122ZM15.3387 3.46174C14.6762 3.46174 14.1387 3.99865 14.1387 4.6614C14.1387 5.32394 14.6762 5.86147 15.3387 5.86147C16.0013 5.86147 16.5388 5.32394 16.5388 4.6614C16.5388 3.99886 16.0013 3.46132 15.3387 3.46132V3.46174ZM4.86474 9.99965C4.86474 7.1635 7.16415 4.86402 10.0003 4.86391C12.8365 4.86391 15.1354 7.16343 15.1354 9.99965C15.1354 12.8359 12.8367 15.1343 10.0005 15.1343C7.16426 15.1343 4.86474 12.8359 4.86474 9.99965ZM13.334 9.99965C13.334 8.15849 11.8414 6.66611 10.0005 6.66611C8.15933 6.66611 6.66694 8.15849 6.66694 9.99965C6.66694 11.8406 8.15933 13.3332 10.0005 13.3332C11.8414 13.3332 13.334 11.8406 13.334 9.99965Z" fill="white"/>
</svg>
