<svg width="112" height="31" viewBox="0 0 112 31" fill="none" xmlns="http://www.w3.org/2000/svg">
<path d="M6.52043 6.87256C7.32043 6.87256 8.01376 6.97256 8.60043 7.17256C9.1871 7.35923 9.69376 7.62589 10.1204 7.97256C10.9604 8.65256 11.5071 9.60589 11.7604 10.8326L9.24043 11.2926C9.0271 10.6126 8.69376 10.0659 8.24043 9.65256C7.80043 9.22589 7.2471 9.01256 6.58043 9.01256C5.67376 9.01256 4.94043 9.39256 4.38043 10.1526C3.78043 10.9792 3.48043 12.1259 3.48043 13.5926C3.48043 15.0459 3.7471 16.1859 4.28043 17.0126C4.81376 17.8259 5.54043 18.2326 6.46043 18.2326C7.38043 18.2326 8.07376 18.0126 8.54043 17.5726C9.0071 17.1192 9.24043 16.5392 9.24043 15.8326H11.7804C11.7804 17.2859 11.3138 18.4126 10.3804 19.2126C9.46043 19.9992 8.19376 20.3926 6.58043 20.3926C4.86043 20.3926 3.49376 19.7926 2.48043 18.5926C1.45376 17.3659 0.94043 15.6992 0.94043 13.5926C0.94043 11.4592 1.4671 9.79256 2.52043 8.59256C3.53376 7.44589 4.8671 6.87256 6.52043 6.87256Z" fill="black"/>
<path d="M17.5362 7.13256H20.4962L24.7562 20.1126H22.2562L21.3562 17.3126H16.5362L15.6162 20.1126H13.1162L17.5362 7.13256ZM17.1362 15.5326H20.7762L18.9762 9.95256L17.1362 15.5326Z" fill="black"/>
<path d="M33.8757 10.7126C33.6624 9.57923 32.8624 9.01256 31.4757 9.01256C30.7957 9.01256 30.2624 9.15256 29.8757 9.43256C29.5024 9.69923 29.3157 10.0259 29.3157 10.4126C29.3157 10.7992 29.4357 11.1059 29.6757 11.3326C29.9291 11.5459 30.3157 11.7459 30.8357 11.9326L33.6557 13.0326C34.6157 13.4059 35.3557 13.8792 35.8757 14.4526C36.3957 15.0126 36.6557 15.7192 36.6557 16.5726C36.6557 17.7459 36.2157 18.6792 35.3357 19.3726C34.4557 20.0526 33.2024 20.3926 31.5757 20.3926C30.1357 20.3926 28.9691 20.0392 28.0757 19.3326C27.0757 18.5592 26.5491 17.4659 26.4957 16.0526H28.8357C28.8357 17.1192 29.3891 17.7926 30.4957 18.0726C30.8291 18.1659 31.2691 18.2126 31.8157 18.2126C32.3624 18.2126 32.8691 18.0792 33.3357 17.8126C33.8024 17.5326 34.0357 17.1659 34.0357 16.7126C34.0357 16.2459 33.9091 15.8926 33.6557 15.6526C33.4024 15.3992 32.9891 15.1659 32.4157 14.9526L29.8357 13.9326C28.8357 13.5459 28.0691 13.0926 27.5357 12.5726C27.0024 12.0526 26.7357 11.3326 26.7357 10.4126C26.7357 9.33256 27.1557 8.47923 27.9957 7.85256C28.8491 7.19923 30.0024 6.87256 31.4557 6.87256C32.9224 6.87256 34.0491 7.21256 34.8357 7.89256C35.6357 8.55923 36.0957 9.49923 36.2157 10.7126H33.8757Z" fill="black"/>
<path d="M46.6297 10.7126C46.4163 9.57923 45.6163 9.01256 44.2296 9.01256C43.5496 9.01256 43.0163 9.15256 42.6297 9.43256C42.2563 9.69923 42.0696 10.0259 42.0696 10.4126C42.0696 10.7992 42.1896 11.1059 42.4296 11.3326C42.683 11.5459 43.0696 11.7459 43.5896 11.9326L46.4096 13.0326C47.3696 13.4059 48.1097 13.8792 48.6297 14.4526C49.1496 15.0126 49.4096 15.7192 49.4096 16.5726C49.4096 17.7459 48.9696 18.6792 48.0896 19.3726C47.2096 20.0526 45.9563 20.3926 44.3297 20.3926C42.8897 20.3926 41.723 20.0392 40.8297 19.3326C39.8297 18.5592 39.303 17.4659 39.2496 16.0526H41.5896C41.5896 17.1192 42.143 17.7926 43.2496 18.0726C43.583 18.1659 44.023 18.2126 44.5696 18.2126C45.1163 18.2126 45.623 18.0792 46.0896 17.8126C46.5563 17.5326 46.7896 17.1659 46.7896 16.7126C46.7896 16.2459 46.663 15.8926 46.4096 15.6526C46.1563 15.3992 45.743 15.1659 45.1697 14.9526L42.5896 13.9326C41.5896 13.5459 40.823 13.0926 40.2896 12.5726C39.7563 12.0526 39.4897 11.3326 39.4897 10.4126C39.4897 9.33256 39.9096 8.47923 40.7496 7.85256C41.603 7.19923 42.7563 6.87256 44.2097 6.87256C45.6763 6.87256 46.803 7.21256 47.5896 7.89256C48.3896 8.55923 48.8497 9.49923 48.9697 10.7126H46.6297Z" fill="black"/>
<path d="M52.5636 7.13256H54.9236V20.1126H52.5636V7.13256Z" fill="black"/>
<path d="M63.6178 6.87256C64.4844 6.87256 65.2778 7.01923 65.9978 7.31256C66.7178 7.59256 67.3378 8.01256 67.8578 8.57256C68.9511 9.74589 69.4978 11.4259 69.4978 13.6126C69.4978 15.8126 68.9511 17.5126 67.8578 18.7126C66.8178 19.8326 65.3978 20.3926 63.5978 20.3926C61.8111 20.3926 60.3978 19.8192 59.3578 18.6726C58.2644 17.4859 57.7178 15.7992 57.7178 13.6126C57.7178 11.3992 58.2644 9.70589 59.3578 8.53256C60.3844 7.42589 61.8044 6.87256 63.6178 6.87256ZM67.0578 13.6526C67.0578 12.1592 66.7444 11.0126 66.1178 10.2126C65.5044 9.39923 64.6711 8.99256 63.6178 8.99256C62.5644 8.99256 61.7244 9.39923 61.0978 10.2126C60.4711 11.0126 60.1578 12.1592 60.1578 13.6526C60.1578 15.1326 60.4711 16.2726 61.0978 17.0726C61.7244 17.8592 62.5644 18.2526 63.6178 18.2526C64.6711 18.2526 65.5044 17.8592 66.1178 17.0726C66.7444 16.2726 67.0578 15.1326 67.0578 13.6526Z" fill="black"/>
<path d="M76.8101 7.13256C78.2768 7.13256 79.4168 7.49256 80.2301 8.21256C81.0568 8.91923 81.4701 9.93923 81.4701 11.2726C81.4701 12.5926 81.0568 13.6126 80.2301 14.3326C79.4168 15.0392 78.2768 15.3926 76.8101 15.3926H74.6101V20.1126H72.2301V7.13256H76.8101ZM76.8101 13.3326C77.5434 13.3326 78.0968 13.1392 78.4701 12.7526C78.8434 12.3659 79.0301 11.8726 79.0301 11.2726C79.0301 10.6592 78.8434 10.1592 78.4701 9.77256C78.0968 9.37256 77.5434 9.17256 76.8101 9.17256H74.6101V13.3326H76.8101Z" fill="black"/>
<path d="M83.8912 7.13256H92.2512V9.17256H86.2512V12.5926H91.8712V14.6326H86.2512V18.0526H92.2512V20.1126H83.8912V7.13256Z" fill="black"/>
<path d="M95.63 7.13256H97.99V20.1126H95.63V7.13256Z" fill="black"/>
<path d="M104.704 7.13256H107.664L111.924 20.1126H109.424L108.524 17.3126H103.704L102.784 20.1126H100.284L104.704 7.13256ZM104.304 15.5326H107.944L106.144 9.95256L104.304 15.5326Z" fill="black"/>
</svg>
