<svg width="27" height="27" viewBox="0 0 27 27" fill="none" xmlns="http://www.w3.org/2000/svg">
<path fill-rule="evenodd" clip-rule="evenodd" d="M13.9813 27C21.161 27 26.9813 20.9558 26.9813 13.5C26.9813 6.04416 21.161 0 13.9813 0C6.80162 0 0.981323 6.04416 0.981323 13.5C0.981323 20.9558 6.80162 27 13.9813 27Z" fill="#F0F0F5"/>
<path fill-rule="evenodd" clip-rule="evenodd" d="M13.7738 19.125C14.2528 19.125 14.6411 18.7367 14.6411 18.2577V14.3182H18.3762C18.8281 14.3182 19.1944 13.9519 19.1944 13.5C19.1944 13.0481 18.8281 12.6818 18.3762 12.6818H14.6411V8.74229C14.6411 8.2633 14.2528 7.875 13.7738 7.875C13.2948 7.875 12.9065 8.2633 12.9065 8.74229V12.6818H9.17145C8.71958 12.6818 8.35327 13.0481 8.35327 13.5C8.35327 13.9519 8.71958 14.3182 9.17145 14.3182H12.9065V18.2577C12.9065 18.7367 13.2948 19.125 13.7738 19.125Z" fill="black"/>
</svg>
