<svg width="11" height="10" viewBox="0 0 11 10" fill="none" xmlns="http://www.w3.org/2000/svg">
<path fill-rule="evenodd" clip-rule="evenodd" d="M5.7998 10C6.24163 10 6.5998 9.64183 6.5998 9.2V5.72727H10.0725C10.4742 5.72727 10.7998 5.40166 10.7998 5C10.7998 4.59834 10.4742 4.27273 10.0725 4.27273H6.5998V0.8C6.5998 0.358172 6.24163 0 5.7998 0C5.35798 0 4.9998 0.358172 4.9998 0.8V4.27273H1.52708C1.12542 4.27273 0.799805 4.59834 0.799805 5C0.799805 5.40166 1.12542 5.72727 1.52708 5.72727H4.9998V9.2C4.9998 9.64183 5.35798 10 5.7998 10Z" fill="black"/>
</svg>
