<svg width="46" height="46" viewBox="0 0 46 46" fill="none" xmlns="http://www.w3.org/2000/svg">
<rect width="46" height="46" rx="4" fill="white"/>
<path fill-rule="evenodd" clip-rule="evenodd" d="M21.2703 27.5405C17.8073 27.5405 15 24.7332 15 21.2703C15 17.8073 17.8073 15 21.2703 15C24.7332 15 27.5405 17.8073 27.5405 21.2703C27.5405 22.7681 27.0153 24.1433 26.139 25.2217L30.81 29.8927C31.0633 30.146 31.0633 30.5567 30.81 30.81C30.5567 31.0633 30.146 31.0633 29.8927 30.81L25.2217 26.139C24.1433 27.0153 22.7681 27.5405 21.2703 27.5405ZM21.2703 26.2432C24.0168 26.2432 26.2432 24.0168 26.2432 21.2703C26.2432 18.5238 24.0168 16.2973 21.2703 16.2973C18.5238 16.2973 16.2973 18.5238 16.2973 21.2703C16.2973 24.0168 18.5238 26.2432 21.2703 26.2432Z" fill="black"/>
</svg>
