<svg width="20" height="21" viewBox="0 0 20 21" fill="none" xmlns="http://www.w3.org/2000/svg">
<path fill-rule="evenodd" clip-rule="evenodd" d="M10.0419 19.9235C15.5323 19.9213 19.9978 15.4547 20 9.96541C20.0011 7.30464 18.9662 4.80272 17.0861 2.92051C15.206 1.03821 12.7057 0.00114973 10.0418 0C4.55292 0 0.0856743 4.467 0.0834898 9.95755C0.0827425 11.7127 0.541295 13.4257 1.41274 14.936L0 20.0962L5.27898 18.7114C6.73348 19.5048 8.37111 19.9229 10.0377 19.9235H10.0419ZM5.52357 16.9086L2.39095 17.7304L3.22709 14.6761L3.0303 14.3629C2.20177 13.0452 1.76418 11.5221 1.76482 9.95813C1.76663 5.39465 5.47965 1.68196 10.0451 1.68196C12.2559 1.68273 14.334 2.54474 15.8967 4.10924C17.4594 5.67374 18.3195 7.75323 18.3186 9.96484C18.3168 14.5287 14.6038 18.2417 10.0419 18.2417H10.0385C8.5533 18.2411 7.0966 17.8421 5.82581 17.088L5.52357 16.9086ZM14.718 12.1094C14.8915 12.1933 15.0087 12.2499 15.0587 12.3334C15.1209 12.4372 15.1209 12.9354 14.9137 13.5167C14.7062 14.0979 13.7122 14.6283 13.2341 14.6998C12.8054 14.7639 12.263 14.7906 11.6669 14.6012C11.3055 14.4865 10.8421 14.3334 10.2484 14.077C7.91578 13.0698 6.33939 10.8089 6.04146 10.3817C6.02058 10.3517 6.00599 10.3308 5.99784 10.3199L5.99584 10.3172C5.86416 10.1415 4.98184 8.96432 4.98184 7.74595C4.98184 6.59981 5.54484 5.99906 5.80399 5.72254C5.82175 5.70359 5.83808 5.68617 5.8527 5.6702C6.08077 5.42109 6.35035 5.35881 6.51622 5.35881C6.68208 5.35881 6.84814 5.36035 6.99311 5.36763C7.011 5.36853 7.0296 5.36842 7.04884 5.3683C7.19384 5.36745 7.37461 5.36639 7.55294 5.79475C7.62155 5.95961 7.72194 6.20401 7.82782 6.46178C8.04193 6.98303 8.27849 7.55894 8.3201 7.64228C8.38232 7.76683 8.42378 7.91208 8.34085 8.07822C8.3284 8.10312 8.31688 8.12663 8.30588 8.14909C8.24359 8.27627 8.19777 8.36982 8.09204 8.49327C8.05046 8.54182 8.00749 8.59415 7.96452 8.64648C7.87892 8.75072 7.79333 8.85496 7.71879 8.92921C7.59423 9.05329 7.46456 9.1879 7.6097 9.43701C7.75485 9.68612 8.25422 10.5009 8.99392 11.1607C9.78906 11.8699 10.4801 12.1697 10.8304 12.3216C10.8988 12.3513 10.9543 12.3754 10.9949 12.3957C11.2436 12.5203 11.3888 12.4994 11.5339 12.3334C11.6791 12.1674 12.1559 11.6068 12.3218 11.3578C12.4876 11.1088 12.6536 11.1503 12.8816 11.2333C13.1097 11.3164 14.3331 11.9182 14.5819 12.0428C14.6305 12.0671 14.6759 12.089 14.718 12.1094Z" fill="black"/>
</svg>
